<svg width="113" height="26" viewBox="0 0 113 26" fill="none" xmlns="http://www.w3.org/2000/svg">
<path d="M8.89841 19.168C7.33041 19.168 5.89041 18.8 4.57841 18.064C3.26641 17.328 2.22641 16.312 1.45841 15.016C0.690408 13.704 0.306408 12.224 0.306408 10.576C0.306408 8.944 0.690408 7.48 1.45841 6.184C2.22641 4.872 3.26641 3.848 4.57841 3.112C5.89041 2.376 7.33041 2.008 8.89841 2.008C10.4824 2.008 11.9224 2.376 13.2184 3.112C14.5304 3.848 15.5624 4.872 16.3144 6.184C17.0824 7.48 17.4664 8.944 17.4664 10.576C17.4664 12.224 17.0824 13.704 16.3144 15.016C15.5624 16.312 14.5304 17.328 13.2184 18.064C11.9064 18.8 10.4664 19.168 8.89841 19.168ZM8.89841 16.168C9.90641 16.168 10.7944 15.944 11.5624 15.496C12.3304 15.032 12.9304 14.376 13.3624 13.528C13.7944 12.68 14.0104 11.696 14.0104 10.576C14.0104 9.456 13.7944 8.48 13.3624 7.648C12.9304 6.8 12.3304 6.152 11.5624 5.704C10.7944 5.256 9.90641 5.032 8.89841 5.032C7.89041 5.032 6.99441 5.256 6.21041 5.704C5.44241 6.152 4.84241 6.8 4.41041 7.648C3.97841 8.48 3.76241 9.456 3.76241 10.576C3.76241 11.696 3.97841 12.68 4.41041 13.528C4.84241 14.376 5.44241 15.032 6.21041 15.496C6.99441 15.944 7.89041 16.168 8.89841 16.168ZM23.4262 7.768C23.8582 7.064 24.4182 6.512 25.1062 6.112C25.8102 5.712 26.6102 5.512 27.5062 5.512V9.04H26.6182C25.5622 9.04 24.7622 9.288 24.2182 9.784C23.6902 10.28 23.4262 11.144 23.4262 12.376V19H20.0662V5.704H23.4262V7.768ZM35.0773 5.488C36.0693 5.488 36.9413 5.688 37.6933 6.088C38.4453 6.472 39.0373 6.976 39.4693 7.6V5.704H42.8533V19.096C42.8533 20.328 42.6053 21.424 42.1093 22.384C41.6133 23.36 40.8693 24.128 39.8773 24.688C38.8853 25.264 37.6853 25.552 36.2773 25.552C34.3893 25.552 32.8373 25.112 31.6213 24.232C30.4213 23.352 29.7413 22.152 29.5813 20.632H32.9173C33.0933 21.24 33.4693 21.72 34.0453 22.072C34.6373 22.44 35.3493 22.624 36.1813 22.624C37.1573 22.624 37.9493 22.328 38.5573 21.736C39.1653 21.16 39.4693 20.28 39.4693 19.096V17.032C39.0373 17.656 38.4373 18.176 37.6693 18.592C36.9173 19.008 36.0533 19.216 35.0773 19.216C33.9573 19.216 32.9333 18.928 32.0053 18.352C31.0773 17.776 30.3413 16.968 29.7973 15.928C29.2693 14.872 29.0053 13.664 29.0053 12.304C29.0053 10.96 29.2693 9.768 29.7973 8.728C30.3413 7.688 31.0693 6.888 31.9813 6.328C32.9093 5.768 33.9413 5.488 35.0773 5.488ZM39.4693 12.352C39.4693 11.536 39.3093 10.84 38.9893 10.264C38.6693 9.672 38.2373 9.224 37.6933 8.92C37.1493 8.6 36.5653 8.44 35.9413 8.44C35.3173 8.44 34.7413 8.592 34.2133 8.896C33.6853 9.2 33.2533 9.648 32.9173 10.24C32.5973 10.816 32.4373 11.504 32.4373 12.304C32.4373 13.104 32.5973 13.808 32.9173 14.416C33.2533 15.008 33.6853 15.464 34.2133 15.784C34.7573 16.104 35.3333 16.264 35.9413 16.264C36.5653 16.264 37.1493 16.112 37.6933 15.808C38.2373 15.488 38.6693 15.04 38.9893 14.464C39.3093 13.872 39.4693 13.168 39.4693 12.352ZM45.3709 12.304C45.3709 10.96 45.6349 9.768 46.1629 8.728C46.7069 7.688 47.4349 6.888 48.3469 6.328C49.2749 5.768 50.3069 5.488 51.4429 5.488C52.4349 5.488 53.2989 5.688 54.0349 6.088C54.7869 6.488 55.3869 6.992 55.8349 7.6V5.704H59.2189V19H55.8349V17.056C55.4029 17.68 54.8029 18.2 54.0349 18.616C53.2829 19.016 52.4109 19.216 51.4189 19.216C50.2989 19.216 49.2749 18.928 48.3469 18.352C47.4349 17.776 46.7069 16.968 46.1629 15.928C45.6349 14.872 45.3709 13.664 45.3709 12.304ZM55.8349 12.352C55.8349 11.536 55.6749 10.84 55.3549 10.264C55.0349 9.672 54.6029 9.224 54.0589 8.92C53.5149 8.6 52.9309 8.44 52.3069 8.44C51.6829 8.44 51.1069 8.592 50.5789 8.896C50.0509 9.2 49.6189 9.648 49.2829 10.24C48.9629 10.816 48.8029 11.504 48.8029 12.304C48.8029 13.104 48.9629 13.808 49.2829 14.416C49.6189 15.008 50.0509 15.464 50.5789 15.784C51.1229 16.104 51.6989 16.264 52.3069 16.264C52.9309 16.264 53.5149 16.112 54.0589 15.808C54.6029 15.488 55.0349 15.04 55.3549 14.464C55.6749 13.872 55.8349 13.168 55.8349 12.352ZM69.9685 5.512C71.5525 5.512 72.8325 6.016 73.8085 7.024C74.7845 8.016 75.2725 9.408 75.2725 11.2V19H71.9125V11.656C71.9125 10.6 71.6485 9.792 71.1205 9.232C70.5925 8.656 69.8725 8.368 68.9605 8.368C68.0325 8.368 67.2965 8.656 66.7525 9.232C66.2245 9.792 65.9605 10.6 65.9605 11.656V19H62.6005V5.704H65.9605V7.36C66.4085 6.784 66.9765 6.336 67.6645 6.016C68.3685 5.68 69.1365 5.512 69.9685 5.512ZM80.2717 4.12C79.6797 4.12 79.1837 3.936 78.7837 3.568C78.3997 3.184 78.2077 2.712 78.2077 2.152C78.2077 1.592 78.3997 1.128 78.7837 0.759999C79.1837 0.375999 79.6797 0.183999 80.2717 0.183999C80.8637 0.183999 81.3517 0.375999 81.7357 0.759999C82.1357 1.128 82.3357 1.592 82.3357 2.152C82.3357 2.712 82.1357 3.184 81.7357 3.568C81.3517 3.936 80.8637 4.12 80.2717 4.12ZM81.9277 5.704V19H78.5677V5.704H81.9277ZM84.4834 12.352C84.4834 10.976 84.7634 9.776 85.3234 8.752C85.8834 7.712 86.6594 6.912 87.6514 6.352C88.6434 5.776 89.7794 5.488 91.0594 5.488C92.7074 5.488 94.0674 5.904 95.1394 6.736C96.2274 7.552 96.9554 8.704 97.3234 10.192H93.6994C93.5074 9.616 93.1794 9.168 92.7154 8.848C92.2674 8.512 91.7074 8.344 91.0354 8.344C90.0754 8.344 89.3154 8.696 88.7554 9.4C88.1954 10.088 87.9154 11.072 87.9154 12.352C87.9154 13.616 88.1954 14.6 88.7554 15.304C89.3154 15.992 90.0754 16.336 91.0354 16.336C92.3954 16.336 93.2834 15.728 93.6994 14.512H97.3234C96.9554 15.952 96.2274 17.096 95.1394 17.944C94.0514 18.792 92.6914 19.216 91.0594 19.216C89.7794 19.216 88.6434 18.936 87.6514 18.376C86.6594 17.8 85.8834 17 85.3234 15.976C84.7634 14.936 84.4834 13.728 84.4834 12.352ZM105.789 19.216C104.509 19.216 103.357 18.936 102.333 18.376C101.309 17.8 100.501 16.992 99.9089 15.952C99.3329 14.912 99.0449 13.712 99.0449 12.352C99.0449 10.992 99.3409 9.792 99.9329 8.752C100.541 7.712 101.365 6.912 102.405 6.352C103.445 5.776 104.605 5.488 105.885 5.488C107.165 5.488 108.325 5.776 109.365 6.352C110.405 6.912 111.221 7.712 111.813 8.752C112.421 9.792 112.725 10.992 112.725 12.352C112.725 13.712 112.413 14.912 111.789 15.952C111.181 16.992 110.349 17.8 109.293 18.376C108.253 18.936 107.085 19.216 105.789 19.216ZM105.789 16.288C106.397 16.288 106.965 16.144 107.493 15.856C108.037 15.552 108.469 15.104 108.789 14.512C109.109 13.92 109.269 13.2 109.269 12.352C109.269 11.088 108.933 10.12 108.261 9.448C107.605 8.76 106.797 8.416 105.837 8.416C104.877 8.416 104.069 8.76 103.413 9.448C102.773 10.12 102.453 11.088 102.453 12.352C102.453 13.616 102.765 14.592 103.389 15.28C104.029 15.952 104.829 16.288 105.789 16.288Z" fill="#171725"/>
</svg>
